<?xml version="1.0"?>
<svg xmlns="http://www.w3.org/2000/svg" xmlns:xlink="http://www.w3.org/1999/xlink" version="1.1" id="Capa_1" x="0px" y="0px" viewBox="0 0 512 512" style="enable-background:new 0 0 512 512;" xml:space="preserve" width="512px" height="512px" class=""><g><g>
	<g>
		<path d="M384,452.267H128c-14.114,0-25.6,11.486-25.6,25.6v8.533c0,14.114,11.486,25.6,25.6,25.6h256    c14.114,0,25.6-11.486,25.6-25.6v-8.533C409.6,463.753,398.114,452.267,384,452.267z M392.533,486.4    c0,4.702-3.823,8.533-8.533,8.533H128c-4.702,0-8.533-3.831-8.533-8.533v-8.533c0-4.702,3.831-8.533,8.533-8.533h256    c4.71,0,8.533,3.831,8.533,8.533V486.4z" data-original="#000000" class="active-path" data-old_color="#000000" fill="#FFFFFF"/>
	</g>
</g><g>
	<g>
		<path d="M341.333,418.133H170.667c-14.114,0-25.6,11.486-25.6,25.6s11.486,25.6,25.6,25.6h170.667c14.114,0,25.6-11.486,25.6-25.6    S355.448,418.133,341.333,418.133z M341.333,452.267H170.667c-4.702,0-8.533-3.831-8.533-8.533c0-4.702,3.831-8.533,8.533-8.533    h170.667c4.71,0,8.533,3.831,8.533,8.533C349.867,448.435,346.044,452.267,341.333,452.267z" data-original="#000000" class="active-path" data-old_color="#000000" fill="#FFFFFF"/>
	</g>
</g><g>
	<g>
		<path d="M332.8,238.933H179.2c-4.71,0-8.533,3.823-8.533,8.533V281.6c0,4.71,3.823,8.533,8.533,8.533h153.6    c4.71,0,8.533-3.823,8.533-8.533v-34.133C341.333,242.756,337.51,238.933,332.8,238.933z M324.267,273.067H187.733V256h136.533    V273.067z" data-original="#000000" class="active-path" data-old_color="#000000" fill="#FFFFFF"/>
	</g>
</g><g>
	<g>
		<path d="M315.733,162.133H196.267c-14.114,0-25.6,11.486-25.6,25.6s11.486,25.6,25.6,25.6h119.467c14.114,0,25.6-11.486,25.6-25.6    S329.847,162.133,315.733,162.133z M315.733,196.267H196.267c-4.702,0-8.533-3.831-8.533-8.533c0-4.702,3.831-8.533,8.533-8.533    h119.467c4.71,0,8.533,3.831,8.533,8.533C324.267,192.435,320.444,196.267,315.733,196.267z" data-original="#000000" class="active-path" data-old_color="#000000" fill="#FFFFFF"/>
	</g>
</g><g>
	<g>
		<path d="M315.733,85.333H196.267c-14.114,0-25.6,11.486-25.6,25.6s11.486,25.6,25.6,25.6h119.467c14.114,0,25.6-11.486,25.6-25.6    S329.847,85.333,315.733,85.333z M315.733,119.467H196.267c-4.702,0-8.533-3.831-8.533-8.533c0-4.702,3.831-8.533,8.533-8.533    h119.467c4.71,0,8.533,3.831,8.533,8.533C324.267,115.635,320.444,119.467,315.733,119.467z" data-original="#000000" class="active-path" data-old_color="#000000" fill="#FFFFFF"/>
	</g>
</g><g>
	<g>
		<path d="M307.2,196.267H204.8c-4.71,0-8.533,3.823-8.533,8.533v42.667c0,4.71,3.823,8.533,8.533,8.533h102.4    c4.71,0,8.533-3.823,8.533-8.533V204.8C315.733,200.09,311.91,196.267,307.2,196.267z M298.667,238.933h-85.333c0,0,0-25.6,0-25.6    h85.333V238.933z" data-original="#000000" class="active-path" data-old_color="#000000" fill="#FFFFFF"/>
	</g>
</g><g>
	<g>
		<path d="M323.831,347.17c-5.376-16.119-8.098-32.905-8.098-49.886V281.6c0-4.71-3.823-8.533-8.533-8.533H204.8    c-4.71,0-8.533,3.823-8.533,8.533v15.684c0,16.981-2.722,33.766-8.098,49.886c-5.888,17.69-8.969,27.802-8.969,46.746v32.751    c0,4.71,3.823,8.533,8.533,8.533h136.533c4.71,0,8.533-3.823,8.533-8.533v-32.751C332.8,374.972,329.728,364.86,323.831,347.17z     M315.733,418.133H196.267v-24.218c0-16.367,2.483-24.508,8.098-41.353c5.948-17.86,8.969-36.454,8.969-55.279v-7.151h85.333    v7.151c0,18.825,3.021,37.419,8.969,55.279c5.615,16.845,8.098,24.986,8.098,41.353V418.133z" data-original="#000000" class="active-path" data-old_color="#000000" fill="#FFFFFF"/>
	</g>
</g><g>
	<g>
		<path d="M307.2,119.467H204.8c-4.71,0-8.533,3.823-8.533,8.533v42.667c0,4.71,3.823,8.533,8.533,8.533h102.4    c4.71,0,8.533-3.823,8.533-8.533V128C315.733,123.29,311.91,119.467,307.2,119.467z M298.667,162.133h-85.333c0,0,0-25.6,0-25.6    h85.333V162.133z" data-original="#000000" class="active-path" data-old_color="#000000" fill="#FFFFFF"/>
	</g>
</g><g>
	<g>
		<path d="M256,0c-18.825,0-34.133,15.309-34.133,34.133c0,18.825,15.309,34.133,34.133,34.133    c18.816,0,34.133-15.309,34.133-34.133C290.133,15.309,274.825,0,256,0z M256,51.2c-9.412,0-17.067-7.654-17.067-17.067    c0-9.412,7.654-17.067,17.067-17.067c9.412,0,17.067,7.654,17.067,17.067C273.067,43.546,265.412,51.2,256,51.2z" data-original="#000000" class="active-path" data-old_color="#000000" fill="#FFFFFF"/>
	</g>
</g><g>
	<g>
		<path d="M256,51.2c-23.526,0-42.667,19.14-42.667,42.667c0,4.71,3.823,8.533,8.533,8.533h68.267c4.71,0,8.533-3.823,8.533-8.533    C298.667,70.34,279.526,51.2,256,51.2z M231.859,85.333c3.524-9.933,13.005-17.067,24.132-17.067    c11.128,0,20.617,7.134,24.141,17.067H231.859z" data-original="#000000" class="active-path" data-old_color="#000000" fill="#FFFFFF"/>
	</g>
</g></g> </svg>
