<?xml version="1.0"?>
<svg xmlns="http://www.w3.org/2000/svg" xmlns:xlink="http://www.w3.org/1999/xlink" version="1.1" id="Capa_1" x="0px" y="0px" viewBox="0 0 408.96 408.96" style="enable-background:new 0 0 408.96 408.96;" xml:space="preserve" width="512px" height="512px"><g><g>
	<g>
		<path d="M348.081,355.681c-0.134-0.002-0.268-0.002-0.402-0.001h-18.36v-5.76c-0.022-19.498-15.822-35.298-35.32-35.32h-8    c-4-6.24-18-31.64-18-96.48c-0.259-33.087,6.106-65.891,18.72-96.48h4.92c22.091,0,40-17.909,40-40    c-0.037-2.805-2.341-5.049-5.147-5.012c-0.098,0.001-0.196,0.005-0.293,0.012h-24.6l5.4-58.44    c-0.022-10.042-8.158-18.178-18.2-18.2h-19.76c-10.042,0.022-18.178,8.158-18.2,18.2v12.64h-18.36V18.32    c-0.022-10.042-8.158-18.178-18.2-18.2h-19.68c-10.011,0.066-18.098,8.189-18.12,18.2v12.64h-18.36V18.32    c-0.022-10.042-8.158-18.178-18.2-18.2h-19.76c-10.118,0.064-18.267,8.318-18.203,18.436c0,0.081,0.002,0.163,0.003,0.244    l5.36,57.84h-24.56c-2.806,0-5.08,2.274-5.08,5.08c0,22.091,17.909,40,40,40h4.92c12.614,30.589,18.979,63.393,18.72,96.48    c0,64.92-13.84,90.32-17.96,96.48h-8c-19.498,0.022-35.298,15.822-35.32,35.32v5.76h-18.76    c-13.63-0.066-24.734,10.929-24.8,24.559c0,0,0,0,0,0.001v4c0.022,13.599,11.041,24.618,24.64,24.64h286.56    c13.538,0.067,24.603-10.784,24.8-24.32v-4C372.634,367.011,361.711,355.836,348.081,355.681z M119.999,10.24    c0.054,0,0.107,0,0.161,0h19.76c4.418,0,8,3.582,8,8v17.68c0,2.806,2.274,5.08,5.08,5.08h28.4c2.806,0,5.08-2.274,5.08-5.08v-17.6    c0-4.418,3.582-8,8-8h19.76c4.418,0,8,3.582,8,8V36c0,2.806,2.274,5.08,5.08,5.08h28.4c2.806,0,5.08-2.274,5.08-5.08V18.32    c0-4.418,3.582-8,8-8h19.76c4.267-0.005,7.787,3.339,8,7.6l-5.12,58.72h-173.92l-5.44-58.32    C112.035,13.902,115.58,10.284,119.999,10.24z M117.519,111.48c-14.419-0.034-26.74-10.399-29.24-24.6h232.44    c-2.485,14.209-14.815,24.583-29.24,24.6H117.519z M151.279,218.12c0.243-32.998-5.798-65.741-17.8-96.48h142    c-12.002,30.739-18.043,63.482-17.8,96.48c0,55.56,9.88,84,16.4,96.48h-139.2C141.399,301.96,151.279,273.68,151.279,218.12z     M89.759,350.12c0.022-13.908,11.292-25.178,25.2-25.2h179.04c13.908,0.022,25.178,11.292,25.2,25.2v5.76H89.759V350.12z     M362.199,384.64c0,8.019-6.501,14.52-14.52,14.52h-286.4c-8.019,0-14.52-6.501-14.52-14.52v-4c0-8.019,6.501-14.52,14.52-14.52    h286.4c8.019,0,14.52,6.501,14.52,14.52V384.64z" data-original="#000000" class="active-path" data-old_color="#000000" fill="#FFFFFF"/>
	</g>
</g></g> </svg>
