<?xml version="1.0" encoding="iso-8859-1"?>
<!-- Generator: Adobe Illustrator 19.0.0, SVG Export Plug-In . SVG Version: 6.00 Build 0)  -->
<svg version="1.1" id="Capa_1" xmlns="http://www.w3.org/2000/svg" xmlns:xlink="http://www.w3.org/1999/xlink" x="0px" y="0px"
	 viewBox="0 0 512 512" style="enable-background:new 0 0 512 512;" xml:space="preserve">
<g>
	<g>
		<path d="M400.906,444.377h-21.098c1.082-3.033,1.778-6.26,1.778-9.66c0-15.978-13.003-28.981-28.981-28.981v-56.397
			c0-21.427-3.864-42.593-11.477-62.918c-5.033-13.428-7.719-35.637-7.825-64.232h19.301c15.978,0,28.981-13.003,28.981-28.981
			s-13.003-28.981-28.981-28.981h-28.981v-24.982l45.471-45.471c1.816-1.816,2.831-4.27,2.831-6.83V9.66
			c0-5.333-4.328-9.66-9.66-9.66h-38.641c-5.333,0-9.66,4.328-9.66,9.66v28.981h-28.981V9.66c0-5.333-4.328-9.66-9.66-9.66h-38.642
			c-5.333,0-9.66,4.328-9.66,9.66v28.981h-28.981V9.66c0-5.333-4.328-9.66-9.66-9.66h-38.641c-5.333,0-9.66,4.328-9.66,9.66v77.283
			c0,2.56,1.014,5.023,2.831,6.83l45.471,45.471v24.982h-28.981c-15.978,0-28.981,13.003-28.981,28.981
			c0,15.978,13.003,28.981,28.981,28.981h19.301c-0.097,28.595-2.782,50.804-7.815,64.232
			c-7.622,20.325-11.486,41.491-11.486,62.918v56.397c-15.978,0-28.981,13.003-28.981,28.981c0,3.4,0.696,6.627,1.787,9.66h-21.108
			c-15.978,0-28.981,13.003-28.981,28.981v9.66c0,15.978,13.003,28.981,28.981,28.981h289.811c15.978,0,28.981-13.003,28.981-28.981
			v-9.66C429.887,457.38,416.884,444.377,400.906,444.377z M159.396,202.868c-5.323,0-9.66-4.338-9.66-9.66
			c0-5.323,4.338-9.66,9.66-9.66h38.642h115.924h38.642c5.333,0,9.66,4.338,9.66,9.66c0,5.323-4.328,9.66-9.66,9.66h-28.981H188.377
			H159.396z M352.604,444.377H159.396c-5.323,0-9.66-4.338-9.66-9.66s4.338-9.66,9.66-9.66h9.66h173.887h9.66
			c5.333,0,9.66,4.338,9.66,9.66S357.936,444.377,352.604,444.377z"/>
	</g>
</g>
<g>
</g>
<g>
</g>
<g>
</g>
<g>
</g>
<g>
</g>
<g>
</g>
<g>
</g>
<g>
</g>
<g>
</g>
<g>
</g>
<g>
</g>
<g>
</g>
<g>
</g>
<g>
</g>
<g>
</g>
</svg>
